# xmcd
#
# Track frame offsets: 
#        150
#        29170
#        66396
#        100064
#        132824
#        160474
#        189062
#        222013
#        253352
#        287840
#        306474
#
# Disc length: 4097 seconds
#
# Revision: 5
# Processed by: cddbd v1.5.2PL0 Copyright (c) Steve Scherf et al.
# Submitted via: ExactAudioCopyFreeDBPlugin 1.0
#
DISCID=a90fff0b
DTITLE=Abou-Khalil Rabih - Morton's Foot
DYEAR=2003
DGENRE=Musique du Monde
TTITLE0=Ma Muse M'abuse
TTITLE1=Morton's Foot
TTITLE2=Il Ritorno del Languore
TTITLE3=Lobotomie Mi Baba Lu
TTITLE4=L'histoire d'un Parapluie
TTITLE5=O Papaia Balerina
TTITLE6=Dr. Gieler's Wiener Schnitzel
TTITLE7=Il Sospiro
TTITLE8=Hopping Jack
TTITLE9=Waltz for Dubbya
TTITLE10=The Return of the Maltese Chicken
EXTD=YEAR: 2003
EXTT0=
EXTT1=
EXTT2=
EXTT3=
EXTT4=
EXTT5=
EXTT6=
EXTT7=
EXTT8=
EXTT9=
EXTT10=
PLAYORDER=
